<?xml version="1.0" encoding="UTF-8"?>
<svg xmlns="http://www.w3.org/2000/svg" id="Ebene_1" viewBox="0 0 678.19 88.64">
  <defs>
    <style>.cls-1{fill:#44a4dc;}.cls-1,.cls-2{stroke-width:0px;}.cls-2{fill:#1e1e1e;}</style>
  </defs>
  <path class="cls-1" d="m633.87,0c-24.47,0-44.32,19.85-44.32,44.32s19.85,44.32,44.32,44.32,44.32-19.85,44.32-44.32S658.34,0,633.87,0Zm0,78.63c-18.93,0-34.31-15.39-34.31-34.31,0-17.2,12.71-31.48,29.24-33.94v40.36l-13.54-13.43v15.54l18.46,18.46,18.62-18.46v-15.69l-13.77,13.66V10.33c16.71,2.29,29.62,16.65,29.62,33.98,0,18.93-15.39,34.31-34.31,34.31h-.01Z"></path>
  <path class="cls-2" d="m16.23,43.24h14.39v20.7c0,10.46-5.23,16.39-15.31,16.39S0,74.33,0,63.94V30.01C0,19.55,5.23,13.62,15.31,13.62s15.31,6,15.31,16.39v6.31h-9.69v-7c0-4.69-2.08-6.46-5.31-6.46s-5.31,1.77-5.31,6.46v35.24c0,4.69,2.08,6.31,5.31,6.31s5.31-1.69,5.31-6.31v-12h-4.69v-9.31h0Z"></path>
  <path class="cls-2" d="m47.47,41.85h14.08v9.31h-14.08v19.08h17.7v9.31h-27.93V14.31h27.93v9.31h-17.7s0,18.23,0,18.23Z"></path>
  <path class="cls-2" d="m68.55,14.39h31.7v9.31h-10.69v55.93h-10.23V23.7h-10.69v-9.31h-.09Z"></path>
  <path class="cls-2" d="m126.33,60.7h.15l6.92-46.32h14.23v65.24h-9.69v-46.85h-.15l-6.92,46.78h-9.69l-7.46-46.16h-.15v46.16h-8.92V14.31h14.23l7.46,46.39h0Z"></path>
  <path class="cls-2" d="m164.72,58.01l-12.93-43.62h10.69l7.77,29.7h.15l7.77-29.7h9.77l-12.93,43.62v21.62h-10.23v-21.62h-.08.02Z"></path>
  <path class="cls-1" d="m192.03,14.39h10.23v65.24h-10.23V14.39Z"></path>
  <path class="cls-1" d="m219.04,32.31h-.15v47.24h-9.23V14.31h12.85l10.31,39.08h.15V14.31h9.16v65.24h-10.54l-12.54-47.24h0Z"></path>
  <path class="cls-1" d="m264.89,67.55h.15l7.77-53.24h9.39l-10.08,65.24h-15.31l-10.08-65.24h10.46l7.69,53.24h0Z"></path>
  <path class="cls-1" d="m286.05,30c0-10.46,5.46-16.39,15.54-16.39s15.54,6,15.54,16.39v33.93c0,10.46-5.46,16.39-15.54,16.39s-15.54-6-15.54-16.39V30Zm10.31,34.62c0,4.69,2.08,6.46,5.31,6.46s5.31-1.77,5.31-6.46V29.38c0-4.69-2.08-6.46-5.31-6.46s-5.31,1.77-5.31,6.46v35.24Z"></path>
  <path class="cls-1" d="m323.82,14.39h10.23v65.24h-10.23V14.39Z"></path>
  <path class="cls-1" d="m371.29,55.24v8.69c0,10.46-5.23,16.39-15.31,16.39s-15.31-6-15.31-16.39V30c0-10.46,5.23-16.39,15.31-16.39s15.31,6,15.31,16.39v6.31h-9.69v-7c0-4.69-2.08-6.46-5.31-6.46s-5.31,1.77-5.31,6.46v35.24c0,4.69,2.08,6.31,5.31,6.31s5.31-1.69,5.31-6.31v-9.31h9.69Z"></path>
  <path class="cls-1" d="m387.76,41.85h14.08v9.31h-14.08v19.08h17.7v9.31h-27.93V14.31h27.93v9.31h-17.7v18.23Z"></path>
  <path class="cls-1" d="m425.61,13.62c10,0,15.08,6,15.08,16.39v2.08h-9.69v-2.69c0-4.69-1.85-6.46-5.15-6.46s-5.15,1.77-5.15,6.46,2.08,8.31,8.77,14.16c8.54,7.54,11.31,12.93,11.31,20.39,0,10.46-5.23,16.39-15.31,16.39s-15.31-6-15.31-16.39v-4h9.69v4.69c0,4.69,2.08,6.31,5.31,6.31s5.31-1.69,5.31-6.31-2.08-8.31-8.77-14.16c-8.54-7.54-11.31-12.93-11.31-20.39.15-10.54,5.23-16.46,15.23-16.46h-.01Z"></path>
  <path class="cls-2" d="m456.07,69.7v9.85h-9.85v-9.85h9.85Z"></path>
  <path class="cls-2" d="m492.31,55.24v8.69c0,10.46-5.23,16.39-15.31,16.39s-15.31-6-15.31-16.39V30c0-10.46,5.23-16.39,15.31-16.39s15.31,6,15.31,16.39v6.31h-9.69v-7c0-4.69-2.08-6.46-5.31-6.46s-5.31,1.77-5.31,6.46v35.24c0,4.69,2.08,6.31,5.31,6.31s5.31-1.69,5.31-6.31v-9.31h9.69Z"></path>
  <path class="cls-2" d="m497.7,30c0-10.46,5.46-16.39,15.54-16.39s15.54,6,15.54,16.39v33.93c0,10.46-5.46,16.39-15.54,16.39s-15.54-6-15.54-16.39V30Zm10.31,34.62c0,4.69,2.08,6.46,5.31,6.46s5.31-1.77,5.31-6.46V29.38c0-4.69-2.08-6.46-5.31-6.46s-5.31,1.77-5.31,6.46v35.24Z"></path>
  <path class="cls-2" d="m557.09,60.7h.15l6.92-46.32h14.23v65.24h-9.62v-46.85h-.15l-6.92,46.78h-9.69l-7.46-46.16h-.15v46.16h-8.92V14.31h14.23l7.39,46.39h0Z"></path>
</svg>
